<svg id="Ebene_1" data-name="Ebene 1"
    xmlns="http://www.w3.org/2000/svg"
    xmlns:xlink="http://www.w3.org/1999/xlink" viewBox="0 0 498.55 218.57">
    <defs>
        <style>.cls-1{fill:url(#Unbenannter_Verlauf_7);}.cls-2{fill:url(#Unbenannter_Verlauf_7-2);}.cls-3{fill:url(#Unbenannter_Verlauf_7-3);}.cls-4{fill:url(#Unbenannter_Verlauf_7-4);}.cls-5{fill:url(#Unbenannter_Verlauf_7-5);}.cls-6{fill:url(#Unbenannter_Verlauf_7-6);}.cls-7{fill:url(#Unbenannter_Verlauf_7-7);}.cls-8{fill:url(#Unbenannter_Verlauf_7-8);}</style>
        <linearGradient id="Unbenannter_Verlauf_7" x1="233.3" y1="393.7" x2="258.53" y2="268.81" gradientUnits="userSpaceOnUse">
            <stop offset="0" stop-color="#6b2382"/>
            <stop offset="0.99" stop-color="#861f81"/>
            <stop offset="1" stop-color="#861f81"/>
        </linearGradient>
        <linearGradient id="Unbenannter_Verlauf_7-2" x1="231.98" y1="393.44" x2="257.21" y2="268.54" xlink:href="#Unbenannter_Verlauf_7"/>
        <linearGradient id="Unbenannter_Verlauf_7-3" x1="453.62" y1="438.21" x2="478.85" y2="313.32" xlink:href="#Unbenannter_Verlauf_7"/>
        <linearGradient id="Unbenannter_Verlauf_7-4" x1="453.61" y1="438.21" x2="478.85" y2="313.32" xlink:href="#Unbenannter_Verlauf_7"/>
        <linearGradient id="Unbenannter_Verlauf_7-5" x1="352.07" y1="417.7" x2="377.3" y2="292.8" xlink:href="#Unbenannter_Verlauf_7"/>
        <linearGradient id="Unbenannter_Verlauf_7-6" x1="352.07" y1="417.7" x2="377.3" y2="292.8" xlink:href="#Unbenannter_Verlauf_7"/>
        <linearGradient id="Unbenannter_Verlauf_7-7" x1="575.04" y1="462.74" x2="600.27" y2="337.85" xlink:href="#Unbenannter_Verlauf_7"/>
        <linearGradient id="Unbenannter_Verlauf_7-8" x1="575.04" y1="462.74" x2="600.27" y2="337.85" xlink:href="#Unbenannter_Verlauf_7"/>
    </defs>
    <path class="cls-1" d="M228.67,399,183.32,297.17h24.54l29.43,69.17,80.83-170h24.54L245.75,399Z" transform="translate(-171.43 -188.62)"/>
    <path class="cls-2" d="M250.62,406.73h-27L171.43,289.44H213l24.72,58.1,75.56-158.92H354.9Zm-16.94-15.44h7.21l89.52-187.23H323L236.9,385.15l-34.14-80.27h-7.55Z" transform="translate(-171.43 -188.62)"/>
    <path class="cls-3" d="M472.54,399.37,473,299.1l-31-.05V279.18h83.39v19.87l-30.77.05-.49,100.27Z" transform="translate(-171.43 -188.62)"/>
    <path class="cls-4" d="M501.86,407.09H464.78l.48-100.28-30.94-.05V271.47h98.83v35.29l-30.81.05Zm-21.57-15.44h6.2L487,291.39l30.73-.05v-4.43h-68v4.43l31,.05Z" transform="translate(-171.43 -188.62)"/>
    <path class="cls-5" d="M368,399.26a65.38,65.38,0,0,1-31.66-7.65A57.88,57.88,0,0,1,314,370.33q-8.25-13.63-8.24-31.36T314,307.54a58.09,58.09,0,0,1,22.35-21.22,69.36,69.36,0,0,1,63.33,0A58.09,58.09,0,0,1,422,307.54q8.25,13.57,8.24,31.43T422,370.33a57.88,57.88,0,0,1-22.35,21.28A65.41,65.41,0,0,1,368,399.26Zm0-20.93a40.75,40.75,0,0,0,20.19-5,36.86,36.86,0,0,0,14.17-13.89,43,43,0,0,0,0-40.91,36.86,36.86,0,0,0-14.17-13.89,43,43,0,0,0-40.31,0,37.44,37.44,0,0,0-14.18,13.89,42.57,42.57,0,0,0,0,40.85,37.31,37.31,0,0,0,14.18,13.95A40.38,40.38,0,0,0,368,378.33Z" transform="translate(-171.43 -188.62)"/>
    <path class="cls-6" d="M368,407a73.3,73.3,0,0,1-35.34-8.58,65.75,65.75,0,0,1-25.28-24.08C301.15,364.06,298,352.16,298,339s3.16-25.21,9.37-35.43a66,66,0,0,1,25.27-24,77.09,77.09,0,0,1,70.69,0,66,66,0,0,1,25.27,24C434.82,313.76,438,325.68,438,339s-3.14,25.09-9.35,35.35a65.77,65.77,0,0,1-25.29,24.08A73.24,73.24,0,0,1,368,407Zm0-120.59a58,58,0,0,0-28,6.72,50.76,50.76,0,0,0-19.44,18.44c-4.72,7.78-7.12,17-7.12,27.42s2.4,19.55,7.13,27.37A49.91,49.91,0,0,0,340,384.82a61.61,61.61,0,0,0,56,0,49.8,49.8,0,0,0,19.44-18.48c4.73-7.83,7.12-17,7.12-27.37s-2.39-19.64-7.11-27.42A50.76,50.76,0,0,0,396,293.11,58,58,0,0,0,368,286.39Zm0,99.66a48.25,48.25,0,0,1-23.9-6A45.05,45.05,0,0,1,327,363.26a50.23,50.23,0,0,1,0-48.66,45.08,45.08,0,0,1,17.06-16.71,48.23,48.23,0,0,1,23.89-6,48.79,48.79,0,0,1,23.94,6A44.64,44.64,0,0,1,409,314.62a50.77,50.77,0,0,1,0,48.68,44.59,44.59,0,0,1-17.1,16.75A48.53,48.53,0,0,1,368,386.05Zm0-78.72a32.6,32.6,0,0,0-16.35,4,29.59,29.59,0,0,0-11.3,11.07,34.88,34.88,0,0,0,0,33,29.47,29.47,0,0,0,11.28,11.1,32.48,32.48,0,0,0,16.35,4,32.89,32.89,0,0,0,16.43-4.05,29,29,0,0,0,11.27-11,35.44,35.44,0,0,0,0-33.15,29,29,0,0,0-11.25-11A33,33,0,0,0,368,307.33Z" transform="translate(-171.43 -188.62)"/>
    <path class="cls-7" d="M600,399.47a65.26,65.26,0,0,1-31.66-7.65A57.73,57.73,0,0,1,546,370.54q-8.25-13.64-8.24-31.36T546,307.76a58,58,0,0,1,22.35-21.23,69.44,69.44,0,0,1,63.33,0A58,58,0,0,1,654,307.76q8.25,13.56,8.24,31.42T654,370.54a57.73,57.73,0,0,1-22.35,21.28A65.3,65.3,0,0,1,600,399.47Zm0-20.93a40.75,40.75,0,0,0,20.19-5,36.86,36.86,0,0,0,14.17-13.89,43,43,0,0,0,0-40.91,36.76,36.76,0,0,0-14.17-13.88,43,43,0,0,0-40.31,0,37.34,37.34,0,0,0-14.18,13.88,42.57,42.57,0,0,0,0,40.85,37.31,37.31,0,0,0,14.18,13.95A40.38,40.38,0,0,0,600,378.54Z" transform="translate(-171.43 -188.62)"/>
    <path class="cls-8" d="M600,407.19a73.3,73.3,0,0,1-35.34-8.58,65.79,65.79,0,0,1-25.28-24.07c-6.21-10.27-9.36-22.16-9.36-35.36s3.15-25.2,9.37-35.43a66,66,0,0,1,25.27-24,77.09,77.09,0,0,1,70.69,0,65.88,65.88,0,0,1,25.27,24C666.83,314,670,325.89,670,339.18s-3.14,25.09-9.35,35.36a65.79,65.79,0,0,1-25.28,24.07A73.31,73.31,0,0,1,600,407.19Zm0-120.58a58,58,0,0,0-28,6.71,50.78,50.78,0,0,0-19.44,18.45c-4.72,7.77-7.12,17-7.12,27.41s2.4,19.55,7.13,27.37A49.86,49.86,0,0,0,572,385a61.69,61.69,0,0,0,56,0,49.89,49.89,0,0,0,19.44-18.49c4.73-7.82,7.12-17,7.12-27.37s-2.39-19.64-7.11-27.41A50.78,50.78,0,0,0,628,293.32,58,58,0,0,0,600,286.61Zm0,99.65a48.15,48.15,0,0,1-23.9-6A45.05,45.05,0,0,1,559,363.47a50.22,50.22,0,0,1,0-48.65,45.18,45.18,0,0,1,17.06-16.72,50.77,50.77,0,0,1,47.83,0A44.57,44.57,0,0,1,641,314.84a50.82,50.82,0,0,1,0,48.67,44.69,44.69,0,0,1-17.1,16.76A48.63,48.63,0,0,1,600,386.26Zm0-78.71a32.59,32.59,0,0,0-16.35,4,29.56,29.56,0,0,0-11.29,11.07,34.86,34.86,0,0,0,0,33.05,29.44,29.44,0,0,0,11.28,11.09,32.5,32.5,0,0,0,16.35,4,32.88,32.88,0,0,0,16.43-4,29,29,0,0,0,11.26-11,35.46,35.46,0,0,0,0-33.14,29.06,29.06,0,0,0-11.25-11A33,33,0,0,0,600,307.55Z" transform="translate(-171.43 -188.62)"/>
</svg>
